# xmcd
#
# Track frame offsets:
#	150
#	14999
#	26112
#	38628
#	53026
#	63802
#	76156
#	89935
#	105401
#	120518
#	129261
#	141321
#
# Disc length: 2109 seconds
# Revision: 0
# Processed by: cddbd v1.5.2PL0 Copyright (c) Steve Scherf et al.
# Submitted via: dBpowerAMP V12.0
#
DISCID=9e083b0c
DTITLE=Edgar Loudermilk - Roads Travelled
DYEAR=2011
DGENRE=Country
TTITLE0=Roads Travelled
TTITLE1=Carolina Dreams
TTITLE2=It Just Might
TTITLE3=One Heart's In
TTITLE4=Loser's Hand
TTITLE5=Rambler's Lament
TTITLE6=Can't Live Life
TTITLE7=Skies in Summer Rain
TTITLE8=Solid Ground
TTITLE9=The Power Up Above
TTITLE10=The Way I Feel
TTITLE11=The One Tends the Fold
EXTD=
EXTT0=
EXTT1=
EXTT2=
EXTT3=
EXTT4=
EXTT5=
EXTT6=
EXTT7=
EXTT8=
EXTT9=
EXTT10=
EXTT11=
PLAYORDER=
